<svg xmlns="http://www.w3.org/2000/svg" version="1.1" xmlns:xlink="http://www.w3.org/1999/xlink" xmlns:svgjs="http://svgjs.dev/svgjs" width="1000" height="1885" viewBox="0 0 1000 1885"><g transform="matrix(1,0,0,1,-1.6221374045799735,0.7631578947367643)"><svg viewBox="0 0 131 247" data-background-color="#ffffff" preserveAspectRatio="xMidYMid meet" height="1885" width="1000" xmlns="http://www.w3.org/2000/svg" xmlns:xlink="http://www.w3.org/1999/xlink"><g id="tight-bounds" transform="matrix(1,0,0,1,0.21249999999997726,-0.09999999999999432)"><svg viewBox="0 0 130.5746219042637 247.2" height="247.2" width="130.5746219042637"><g><svg></svg></g><g><svg viewBox="0 0 130.5746219042637 247.2" height="247.2" width="130.5746219042637"><g transform="matrix(1,0,0,1,0,47.215199999999996)"><svg viewBox="0 0 130.5746219042637 152.7696" height="152.7696" width="130.5746219042637"><g><svg viewBox="0 0 245.65351679999995 287.4095207232903" height="152.7696" width="130.5746219042637"><g><rect width="245.65351679999995" height="6.912461696225494" x="0" y="153.1540804292297" fill="#4d7e3e" opacity="1" stroke-width="0" stroke="transparent" fill-opacity="1" class="rect-s$-0" data-fill-palette-color="secondary" rx="1%" id="s$-0" data-palette-color="#4d7e3e"></rect></g><g transform="matrix(1,0,0,1,0.6110783999999825,178.1619915920141)"><svg viewBox="0 0 244.43135999999998 109.24752913127621" height="109.24752913127621" width="244.43135999999998"><g id="textblocktransform"><svg viewBox="0 0 244.43135999999998 109.24752913127621" height="109.24752913127621" width="244.43135999999998" id="textblock"><g><svg viewBox="0 0 244.43135999999998 76.65094912891985" height="76.65094912891985" width="244.43135999999998"><g transform="matrix(1,0,0,1,0,0)"><svg width="244.43135999999998" viewBox="4.35 -35.5 114.79 36" height="76.65094912891985" data-palette-color="#4d7e3e"><path d="M8.15 0L5.5 0Q4.95 0 4.65-0.33 4.35-0.65 4.35-1.15L4.35-1.15 4.35-33.85Q4.35-34.35 4.65-34.68 4.95-35 5.5-35L5.5-35 8.15-35Q8.7-35 9-34.68 9.3-34.35 9.3-33.85L9.3-33.85 9.3-1.15Q9.3-0.65 9-0.33 8.7 0 8.15 0L8.15 0ZM30.6 0.5L30.6 0.5Q26 0.5 22.97-1.2 19.95-2.9 18.4-5.95 16.85-9 16.7-13.05L16.7-13.05Q16.65-15.1 16.65-17.45 16.65-19.8 16.7-21.95L16.7-21.95Q16.85-26 18.4-29.05 19.95-32.1 22.97-33.8 26-35.5 30.6-35.5L30.6-35.5Q34.05-35.5 36.65-34.55 39.25-33.6 40.97-32 42.7-30.4 43.6-28.43 44.5-26.45 44.6-24.35L44.6-24.35Q44.65-23.9 44.32-23.6 44-23.3 43.55-23.3L43.55-23.3 40.8-23.3Q40.35-23.3 40.02-23.55 39.7-23.8 39.55-24.45L39.55-24.45Q38.7-28.35 36.37-29.8 34.05-31.25 30.6-31.25L30.6-31.25Q26.55-31.25 24.2-28.98 21.85-26.7 21.7-21.7L21.7-21.7Q21.55-17.6 21.7-13.3L21.7-13.3Q21.85-8.3 24.2-6.03 26.55-3.75 30.6-3.75L30.6-3.75Q34.05-3.75 36.37-5.2 38.7-6.65 39.55-10.55L39.55-10.55Q39.7-11.2 40.02-11.45 40.35-11.7 40.8-11.7L40.8-11.7 43.55-11.7Q44-11.7 44.32-11.43 44.65-11.15 44.6-10.7L44.6-10.7Q44.5-8.6 43.6-6.6 42.7-4.6 40.97-3 39.25-1.4 36.65-0.45 34.05 0.5 30.6 0.5ZM54.9 0L52.45 0Q51.95 0 51.62-0.33 51.3-0.65 51.3-1.15L51.3-1.15 51.3-33.8Q51.3-34.35 51.62-34.68 51.95-35 52.45-35L52.45-35 54.95-35Q55.55-35 55.85-34.7 56.15-34.4 56.25-34.2L56.25-34.2 66.8-14 77.45-34.2Q77.55-34.4 77.82-34.7 78.1-35 78.7-35L78.7-35 81.15-35Q81.7-35 82.02-34.68 82.34-34.35 82.34-33.8L82.34-33.8 82.34-1.15Q82.34-0.65 82.02-0.33 81.7 0 81.15 0L81.15 0 78.7 0Q78.2 0 77.87-0.33 77.55-0.65 77.55-1.15L77.55-1.15 77.55-25.75 69.2-9.45Q69-8.95 68.6-8.68 68.2-8.4 67.6-8.4L67.6-8.4 66.05-8.4Q65.4-8.4 65.05-8.68 64.7-8.95 64.45-9.45L64.45-9.45 56.05-25.75 56.05-1.15Q56.05-0.65 55.72-0.33 55.4 0 54.9 0L54.9 0ZM91.19 0L88.64 0Q88.24 0 87.94-0.3 87.64-0.6 87.64-1L87.64-1Q87.64-1.25 87.69-1.55L87.69-1.55 100.09-33.9Q100.29-34.4 100.64-34.7 100.99-35 101.69-35L101.69-35 105.09-35Q105.79-35 106.14-34.7 106.49-34.4 106.69-33.9L106.69-33.9 119.04-1.55Q119.14-1.25 119.14-1L119.14-1Q119.14-0.6 118.84-0.3 118.54 0 118.14 0L118.14 0 115.59 0Q114.99 0 114.72-0.3 114.44-0.6 114.34-0.85L114.34-0.85 111.59-7.95 95.19-7.95 92.44-0.85Q92.39-0.6 92.09-0.3 91.79 0 91.19 0L91.19 0ZM103.39-30L96.64-12.25 110.14-12.25 103.39-30Z" opacity="1" transform="matrix(1,0,0,1,0,0)" fill="#4d7e3e" class="undefined-text-0" data-fill-palette-color="primary" id="text-0"></path></svg></g></svg></g><g transform="matrix(1,0,0,1,0,94.74639859547872)"><svg viewBox="0 0 244.43135999999998 14.501130535797483" height="14.501130535797483" width="244.43135999999998"><g transform="matrix(1,0,0,1,0,0)"><svg width="244.43135999999998" viewBox="3.7 -37.5 643.8199999999999 38.2" height="14.501130535797483" data-palette-color="#4d7e3e"><path d="M3.7 0L3.7-35 8.3-35 8.3 0 3.7 0ZM20.65 0.5Q16.35 0.5 13.2-1.5L13.2-1.5 13.75-5.9Q16.95-3.4 20.35-3.4L20.35-3.4Q22.15-3.4 23.17-4.15 24.2-4.9 24.2-6.35L24.2-6.35Q24.2-7.45 23.72-8.15 23.25-8.85 22.15-9.5 21.05-10.15 18.75-11.2L18.75-11.2Q16.05-12.45 14.8-14.05 13.55-15.65 13.55-18.2L13.55-18.2Q13.55-21.2 15.65-23.1 17.75-25 21.3-25L21.3-25Q24.9-25 27.6-23.4L27.6-23.4 27.05-19.35Q25.7-20.25 24.5-20.68 23.3-21.1 21.65-21.1L21.65-21.1Q19.9-21.1 18.9-20.35 17.9-19.6 17.9-18.25L17.9-18.25Q17.9-16.9 18.77-16.2 19.65-15.5 22.2-14.35L22.2-14.35Q25.75-12.75 27.2-11.13 28.65-9.5 28.65-6.85L28.65-6.85Q28.65-3.4 26.5-1.45 24.35 0.5 20.65 0.5L20.65 0.5ZM37.8 0.5Q34.99 0.5 33.64-1.2 32.3-2.9 32.3-5.4L32.3-5.4 32.3-37.5 36.64-37.5 36.64-8Q36.64-5.8 36.87-4.78 37.09-3.75 37.74-3.4 38.39-3.05 39.84-3.05L39.84-3.05 39.3 0.5 37.8 0.5ZM48.54 0.5Q45.74 0.5 43.94-1.5 42.14-3.5 42.14-6.6L42.14-6.6Q42.14-11.2 45.99-13.23 49.84-15.25 54.59-15.35L54.59-15.35Q54.59-18.55 53.64-19.8 52.69-21.05 50.44-21.05L50.44-21.05Q47.54-21.05 44.54-18.8L44.54-18.8 43.99-22.45Q47.14-25 51.29-25L51.29-25Q55.24-25 57.14-22.73 59.04-20.45 59.04-15.4L59.04-15.4 59.04-8.25Q59.04-5.4 59.44-4.23 59.84-3.05 61.19-3.05L61.19-3.05 61.74-3.05 61.19 0.5 60.24 0.5Q57.94 0.5 56.84-0.35 55.74-1.2 55.04-3.1L55.04-3.1Q53.89-1.45 52.19-0.48 50.49 0.5 48.54 0.5L48.54 0.5ZM49.89-3.05Q51.09-3.05 52.39-3.98 53.69-4.9 54.59-6.4L54.59-6.4 54.59-12.25Q50.74-12.05 48.74-10.78 46.74-9.5 46.74-6.85L46.74-6.85Q46.74-3.05 49.89-3.05L49.89-3.05ZM89.64-25Q97.74-25 97.74-14L97.74-14 97.74 0 93.39 0 93.39-13.45Q93.39-17.45 92.32-19.23 91.24-21 88.69-21L88.69-21Q86.24-21 84.94-19.2 83.64-17.4 83.64-14L83.64-14 83.64 0 79.29 0 79.29-13.45Q79.29-17.3 78.22-19.15 77.14-21 74.89-21L74.89-21Q73.24-21 71.84-20.1 70.44-19.2 69.49-17.6L69.49-17.6 69.49 0 65.14 0 65.14-24.5 68.74-24.5 69.09-21.4Q70.14-23.05 71.94-24.03 73.74-25 75.89-25L75.89-25Q78.14-25 79.77-23.93 81.39-22.85 82.34-20.85L82.34-20.85Q83.29-22.8 85.17-23.9 87.04-25 89.64-25L89.64-25ZM102.79-30.05L102.79-35 107.14-35 107.14-30.05 102.79-30.05ZM102.79 0L102.79-24.5 107.14-24.5 107.14 0 102.79 0ZM122.69 0.5Q117.09 0.5 114.19-3.03 111.29-6.55 111.29-12.1L111.29-12.1Q111.29-17.85 114.19-21.43 117.09-25 122.79-25L122.79-25Q125.84-25 128.24-23.75L128.24-23.75 127.54-19.9Q125.29-21.1 122.84-21.1L122.84-21.1Q119.49-21.1 117.61-18.78 115.74-16.45 115.74-12.3L115.74-12.3Q115.74-8.15 117.66-5.75 119.59-3.35 122.99-3.35L122.99-3.35Q125.59-3.35 127.59-4.55L127.59-4.55 128.19-0.65Q127.19-0.15 125.69 0.18 124.19 0.5 122.69 0.5L122.69 0.5ZM156.53 0.7Q151.68 0.7 148.08-1.53 144.48-3.75 142.51-7.88 140.53-12 140.53-17.5L140.53-17.5Q140.53-22.95 142.56-27.08 144.58-31.2 148.18-33.45 151.78-35.7 156.33-35.7L156.33-35.7Q160.33-35.7 163.93-34.2L163.93-34.2 163.43-29.95Q160.23-31.55 157.23-31.55L157.23-31.55Q153.53-31.55 150.91-29.7 148.28-27.85 146.93-24.65 145.58-21.45 145.58-17.5L145.58-17.5Q145.58-13.55 146.93-10.35 148.28-7.15 150.91-5.3 153.53-3.45 157.28-3.45L157.28-3.45Q160.53-3.45 163.43-4.95L163.43-4.95 163.93-0.7Q160.73 0.7 156.53 0.7L156.53 0.7ZM177.73 0.5Q174.03 0.5 171.4-1.23 168.78-2.95 167.45-5.9 166.13-8.85 166.13-12.45L166.13-12.45Q166.13-15.9 167.35-18.78 168.58-21.65 170.9-23.33 173.23-25 176.43-25L176.43-25Q180.53-25 183.1-22.25 185.68-19.5 185.68-14.65L185.68-14.65Q185.68-13.8 185.48-12.3L185.48-12.3 170.58-12.3Q170.73-7.95 172.75-5.7 174.78-3.45 178.03-3.45L178.03-3.45Q179.58-3.45 181.3-3.83 183.03-4.2 184.33-4.9L184.33-4.9 184.73-1Q181.98 0.5 177.73 0.5L177.73 0.5ZM170.78-15.35L181.23-15.35Q181.23-17.85 180-19.43 178.78-21 176.48-21L176.48-21Q174.23-21 172.75-19.6 171.28-18.2 170.78-15.35L170.78-15.35ZM199.98-25Q203.78-25 205.8-22.03 207.83-19.05 207.83-14L207.83-14 207.83 0 203.48 0 203.48-13.45Q203.48-17.35 202.35-19.23 201.23-21.1 198.98-21.1L198.98-21.1Q197.33-21.1 195.93-20.18 194.53-19.25 193.58-17.6L193.58-17.6 193.58 0 189.23 0 189.23-24.5 192.93-24.5 193.23-21.45Q194.28-23.1 196.05-24.05 197.83-25 199.98-25L199.98-25ZM219.67 0.5Q216.82 0.5 215.45-1.2 214.07-2.9 214.07-5.35L214.07-5.35 214.07-21.05 210.67-21.05 211.07-24.5 214.07-24.5 214.07-30.55 218.42-31 218.42-24.5 223.72-24.5 223.72-21.05 218.42-21.05 218.42-7.1Q218.42-4.85 219.25-3.95 220.07-3.05 222.12-3.05L222.12-3.05 223.67-3.05 223.27 0.5 219.67 0.5ZM237.67 0.5Q233.97 0.5 231.35-1.23 228.72-2.95 227.4-5.9 226.07-8.85 226.07-12.45L226.07-12.45Q226.07-15.9 227.3-18.78 228.52-21.65 230.85-23.33 233.17-25 236.37-25L236.37-25Q240.47-25 243.05-22.25 245.62-19.5 245.62-14.65L245.62-14.65Q245.62-13.8 245.42-12.3L245.42-12.3 230.52-12.3Q230.67-7.95 232.7-5.7 234.72-3.45 237.97-3.45L237.97-3.45Q239.52-3.45 241.25-3.83 242.97-4.2 244.27-4.9L244.27-4.9 244.67-1Q241.92 0.5 237.67 0.5L237.67 0.5ZM230.72-15.35L241.17-15.35Q241.17-17.85 239.95-19.43 238.72-21 236.42-21L236.42-21Q234.17-21 232.7-19.6 231.22-18.2 230.72-15.35L230.72-15.35ZM249.52 0L249.52-24.5 253.07-24.5 253.62-20.4Q255.27-22.8 256.74-23.9 258.22-25 259.87-25L259.87-25Q260.52-25 261.02-24.85L261.02-24.85 260.57-19.9Q259.92-20.05 259.07-20.05L259.07-20.05Q257.42-20.05 255.97-19.23 254.52-18.4 253.87-17.3L253.87-17.3 253.87 0 249.52 0ZM287.46 0.7Q283.16 0.7 279.79-1.55 276.41-3.8 274.51-7.93 272.61-12.05 272.61-17.5L272.61-17.5Q272.61-22.95 274.51-27.08 276.41-31.2 279.79-33.45 283.16-35.7 287.46-35.7L287.46-35.7Q291.76-35.7 295.11-33.45 298.46-31.2 300.36-27.08 302.26-22.95 302.26-17.5L302.26-17.5Q302.26-12.05 300.36-7.93 298.46-3.8 295.11-1.55 291.76 0.7 287.46 0.7L287.46 0.7ZM287.46-3.85Q292.26-3.85 294.84-7.68 297.41-11.5 297.41-17.5L297.41-17.5Q297.41-23.5 294.84-27.33 292.26-31.15 287.46-31.15L287.46-31.15Q282.66-31.15 280.06-27.33 277.46-23.5 277.46-17.5L277.46-17.5Q277.46-11.5 280.06-7.68 282.66-3.85 287.46-3.85L287.46-3.85ZM307.66 0L307.66-21.05 304.26-21.05 304.76-24.5 307.66-24.5 307.66-31.05Q307.66-33.95 309.31-35.73 310.96-37.5 314.01-37.5L314.01-37.5Q315.86-37.5 317.26-36.95L317.26-36.95 316.71-33.2Q315.66-33.55 314.71-33.55L314.71-33.55Q313.41-33.55 312.71-32.73 312.01-31.9 312.01-30.4L312.01-30.4 312.01-24.5 317.41-24.5 317.41-21.05 312.01-21.05 312.01 0 307.66 0ZM361.5 0L356.61 0 354.31-25.3 345.86-7.25 337.41-25.3 335.06 0 330.21 0 334-35 337.86-35 345.86-16.95 353.86-35 357.71-35 361.5 0ZM375.7 0.5Q372 0.5 369.38-1.23 366.75-2.95 365.43-5.9 364.1-8.85 364.1-12.45L364.1-12.45Q364.1-15.9 365.33-18.78 366.55-21.65 368.88-23.33 371.2-25 374.4-25L374.4-25Q378.5-25 381.08-22.25 383.65-19.5 383.65-14.65L383.65-14.65Q383.65-13.8 383.45-12.3L383.45-12.3 368.55-12.3Q368.7-7.95 370.73-5.7 372.75-3.45 376-3.45L376-3.45Q377.55-3.45 379.28-3.83 381-4.2 382.3-4.9L382.3-4.9 382.7-1Q379.95 0.5 375.7 0.5L375.7 0.5ZM368.75-15.35L379.2-15.35Q379.2-17.85 377.98-19.43 376.75-21 374.45-21L374.45-21Q372.2-21 370.73-19.6 369.25-18.2 368.75-15.35L368.75-15.35ZM392.95 0.5Q390.15 0.5 388.8-1.2 387.45-2.9 387.45-5.4L387.45-5.4 387.45-37.5 391.8-37.5 391.8-8Q391.8-5.8 392.02-4.78 392.25-3.75 392.9-3.4 393.55-3.05 395-3.05L395-3.05 394.45 0.5 392.95 0.5ZM399-30.05L399-35 403.35-35 403.35-30.05 399-30.05ZM399 0L399-24.5 403.35-24.5 403.35 0 399 0ZM415.39 0.5Q411.09 0.5 407.94-1.5L407.94-1.5 408.49-5.9Q411.69-3.4 415.09-3.4L415.09-3.4Q416.89-3.4 417.92-4.15 418.94-4.9 418.94-6.35L418.94-6.35Q418.94-7.45 418.47-8.15 417.99-8.85 416.89-9.5 415.79-10.15 413.49-11.2L413.49-11.2Q410.79-12.45 409.54-14.05 408.29-15.65 408.29-18.2L408.29-18.2Q408.29-21.2 410.39-23.1 412.49-25 416.04-25L416.04-25Q419.64-25 422.34-23.4L422.34-23.4 421.79-19.35Q420.44-20.25 419.24-20.68 418.04-21.1 416.39-21.1L416.39-21.1Q414.64-21.1 413.64-20.35 412.64-19.6 412.64-18.25L412.64-18.25Q412.64-16.9 413.52-16.2 414.39-15.5 416.94-14.35L416.94-14.35Q420.49-12.75 421.94-11.13 423.39-9.5 423.39-6.85L423.39-6.85Q423.39-3.4 421.24-1.45 419.09 0.5 415.39 0.5L415.39 0.5ZM433.39 0.5Q429.09 0.5 425.94-1.5L425.94-1.5 426.49-5.9Q429.69-3.4 433.09-3.4L433.09-3.4Q434.89-3.4 435.92-4.15 436.94-4.9 436.94-6.35L436.94-6.35Q436.94-7.45 436.47-8.15 435.99-8.85 434.89-9.5 433.79-10.15 431.49-11.2L431.49-11.2Q428.79-12.45 427.54-14.05 426.29-15.65 426.29-18.2L426.29-18.2Q426.29-21.2 428.39-23.1 430.49-25 434.04-25L434.04-25Q437.64-25 440.34-23.4L440.34-23.4 439.79-19.35Q438.44-20.25 437.24-20.68 436.04-21.1 434.39-21.1L434.39-21.1Q432.64-21.1 431.64-20.35 430.64-19.6 430.64-18.25L430.64-18.25Q430.64-16.9 431.52-16.2 432.39-15.5 434.94-14.35L434.94-14.35Q438.49-12.75 439.94-11.13 441.39-9.5 441.39-6.85L441.39-6.85Q441.39-3.4 439.24-1.45 437.09 0.5 433.39 0.5L433.39 0.5ZM449.89 0.5Q447.09 0.5 445.29-1.5 443.49-3.5 443.49-6.6L443.49-6.6Q443.49-11.2 447.34-13.23 451.19-15.25 455.94-15.35L455.94-15.35Q455.94-18.55 454.99-19.8 454.04-21.05 451.79-21.05L451.79-21.05Q448.89-21.05 445.89-18.8L445.89-18.8 445.34-22.45Q448.49-25 452.64-25L452.64-25Q456.59-25 458.49-22.73 460.39-20.45 460.39-15.4L460.39-15.4 460.39-8.25Q460.39-5.4 460.79-4.23 461.19-3.05 462.54-3.05L462.54-3.05 463.09-3.05 462.54 0.5 461.59 0.5Q459.29 0.5 458.19-0.35 457.09-1.2 456.39-3.1L456.39-3.1Q455.24-1.45 453.54-0.48 451.84 0.5 449.89 0.5L449.89 0.5ZM451.24-3.05Q452.44-3.05 453.74-3.98 455.04-4.9 455.94-6.4L455.94-6.4 455.94-12.25Q452.09-12.05 450.09-10.78 448.09-9.5 448.09-6.85L448.09-6.85Q448.09-3.05 451.24-3.05L451.24-3.05ZM481.28 0.5Q478.48 0.5 476.68-1.5 474.88-3.5 474.88-6.6L474.88-6.6Q474.88-11.2 478.73-13.23 482.58-15.25 487.33-15.35L487.33-15.35Q487.33-18.55 486.38-19.8 485.43-21.05 483.18-21.05L483.18-21.05Q480.28-21.05 477.28-18.8L477.28-18.8 476.73-22.45Q479.88-25 484.03-25L484.03-25Q487.98-25 489.88-22.73 491.78-20.45 491.78-15.4L491.78-15.4 491.78-8.25Q491.78-5.4 492.18-4.23 492.58-3.05 493.93-3.05L493.93-3.05 494.48-3.05 493.93 0.5 492.98 0.5Q490.68 0.5 489.58-0.35 488.48-1.2 487.78-3.1L487.78-3.1Q486.63-1.45 484.93-0.48 483.23 0.5 481.28 0.5L481.28 0.5ZM482.63-3.05Q483.83-3.05 485.13-3.98 486.43-4.9 487.33-6.4L487.33-6.4 487.33-12.25Q483.48-12.05 481.48-10.78 479.48-9.5 479.48-6.85L479.48-6.85Q479.48-3.05 482.63-3.05L482.63-3.05ZM508.63-25Q512.43-25 514.46-22.03 516.48-19.05 516.48-14L516.48-14 516.48 0 512.13 0 512.13-13.45Q512.13-17.35 511.01-19.23 509.88-21.1 507.63-21.1L507.63-21.1Q505.98-21.1 504.58-20.18 503.18-19.25 502.23-17.6L502.23-17.6 502.23 0 497.88 0 497.88-24.5 501.58-24.5 501.88-21.45Q502.93-23.1 504.71-24.05 506.48-25 508.63-25L508.63-25ZM536.23-37.5L540.58-37.5 540.58 0 536.73 0 536.38-2.25Q535.23-0.9 533.63-0.2 532.03 0.5 530.13 0.5L530.13 0.5Q527.28 0.5 525.03-1.18 522.78-2.85 521.48-5.75 520.18-8.65 520.18-12.2L520.18-12.2Q520.18-15.65 521.4-18.57 522.63-21.5 524.9-23.25 527.18-25 530.13-25L530.13-25Q533.78-25 536.23-22.45L536.23-22.45 536.23-37.5ZM530.58-3.35Q533.33-3.35 534.98-5.53 536.63-7.7 536.63-12.2L536.63-12.2Q536.63-16.55 534.98-18.82 533.33-21.1 530.58-21.1L530.58-21.1Q528.88-21.1 527.53-19.95 526.18-18.8 525.4-16.78 524.63-14.75 524.63-12.2L524.63-12.2Q524.63-9.8 525.4-7.78 526.18-5.75 527.55-4.55 528.93-3.35 530.58-3.35L530.58-3.35ZM574.77 0L571.97-9.5 561.12-9.5 558.32 0 553.42 0 564.17-35 568.87-35 579.62 0 574.77 0ZM562.37-13.75L570.72-13.75 566.52-27.95 562.37-13.75ZM593.27-25Q597.07-25 599.1-22.03 601.12-19.05 601.12-14L601.12-14 601.12 0 596.77 0 596.77-13.45Q596.77-17.35 595.65-19.23 594.52-21.1 592.27-21.1L592.27-21.1Q590.62-21.1 589.22-20.18 587.82-19.25 586.87-17.6L586.87-17.6 586.87 0 582.52 0 582.52-24.5 586.22-24.5 586.52-21.45Q587.57-23.1 589.35-24.05 591.12-25 593.27-25L593.27-25ZM616.62-25Q620.42-25 622.44-22.03 624.47-19.05 624.47-14L624.47-14 624.47 0 620.12 0 620.12-13.45Q620.12-17.35 618.99-19.23 617.87-21.1 615.62-21.1L615.62-21.1Q613.97-21.1 612.57-20.18 611.17-19.25 610.22-17.6L610.22-17.6 610.22 0 605.87 0 605.87-24.5 609.57-24.5 609.87-21.45Q610.92-23.1 612.69-24.05 614.47-25 616.62-25L616.62-25ZM634.32 0.5Q631.52 0.5 629.72-1.5 627.92-3.5 627.92-6.6L627.92-6.6Q627.92-11.2 631.77-13.23 635.62-15.25 640.37-15.35L640.37-15.35Q640.37-18.55 639.42-19.8 638.47-21.05 636.22-21.05L636.22-21.05Q633.32-21.05 630.32-18.8L630.32-18.8 629.77-22.45Q632.92-25 637.07-25L637.07-25Q641.02-25 642.92-22.73 644.82-20.45 644.82-15.4L644.82-15.4 644.82-8.25Q644.82-5.4 645.22-4.23 645.62-3.05 646.97-3.05L646.97-3.05 647.52-3.05 646.97 0.5 646.02 0.5Q643.72 0.5 642.62-0.35 641.52-1.2 640.82-3.1L640.82-3.1Q639.67-1.45 637.97-0.48 636.27 0.5 634.32 0.5L634.32 0.5ZM635.67-3.05Q636.87-3.05 638.17-3.98 639.47-4.9 640.37-6.4L640.37-6.4 640.37-12.25Q636.52-12.05 634.52-10.78 632.52-9.5 632.52-6.85L632.52-6.85Q632.52-3.05 635.67-3.05L635.67-3.05Z" opacity="1" transform="matrix(1,0,0,1,0,0)" fill="#4d7e3e" class="undefined-text-1" data-fill-palette-color="secondary" id="text-1"></path></svg></g></svg></g></svg></g></svg></g><g transform="matrix(1,0,0,1,47.29746815999998,0)"><svg viewBox="0 0 151.05858048 135.05863096267083" height="135.05863096267083" width="151.05858048"><g><svg xmlns="http://www.w3.org/2000/svg" xmlns:xlink="http://www.w3.org/1999/xlink" version="1.1" x="8" y="0" viewBox="16 16 480 480.00017941608684" style="enable-background:new 0 0 512 512;" xml:space="preserve" height="135.05863096267083" width="135.05858048" class="icon-icon-0" data-fill-palette-color="accent" id="icon-0"><g fill="#4d7e3e" data-fill-palette-color="accent"><g fill="#4d7e3e" data-fill-palette-color="accent"><g fill="#4d7e3e" data-fill-palette-color="accent"><g fill="#4d7e3e" data-fill-palette-color="accent"><g fill="#4d7e3e" data-fill-palette-color="accent"><g fill="#4d7e3e" data-fill-palette-color="accent"><path d="M294.366 253.048c-5.522 0-10-4.477-10-10 0-39.651-7.68-64.864-16.572-94.058-6.353-20.856-13.552-44.495-18.516-76.137-0.855-5.456 2.874-10.573 8.33-11.429 5.444-0.854 10.572 2.873 11.429 8.33 4.746 30.256 11.429 52.193 17.891 73.409 8.969 29.445 17.439 57.256 17.439 99.886C304.366 248.571 299.889 253.048 294.366 253.048z" fill="#4d7e3e" data-fill-palette-color="accent"></path></g></g><g fill="#4d7e3e" data-fill-palette-color="accent"><g fill="#4d7e3e" data-fill-palette-color="accent"><path d="M223.031 253.048c-5.523 0-10-4.477-10-10 0-42.63 8.471-70.442 17.439-99.887 6.462-21.215 13.144-43.152 17.89-73.408 0.856-5.456 5.975-9.179 11.429-8.33 5.456 0.856 9.186 5.973 8.329 11.429-4.964 31.641-12.164 55.28-18.516 76.136-8.892 29.194-16.572 54.408-16.572 94.059C233.031 248.571 228.554 253.048 223.031 253.048z" fill="#4d7e3e" data-fill-palette-color="accent"></path></g></g></g><g fill="#4d7e3e" data-fill-palette-color="accent"><g fill="#4d7e3e" data-fill-palette-color="accent"><g fill="#4d7e3e" data-fill-palette-color="accent"><path d="M486 315.756h-87.964c-3.411 0-6.588-1.739-8.425-4.613-1.838-2.874-2.084-6.486-0.652-9.583 8.254-17.853 12.438-36.862 12.438-56.502 0-23.14-11.101-43.197-37.119-67.067-4.069-3.733-4.342-10.06-0.608-14.129 3.735-4.069 10.059-4.342 14.13-0.608 20.298 18.623 43.598 44.75 43.598 81.804 0 17.426-2.867 34.417-8.541 50.698H486c5.522 0 10 4.478 10 10S491.522 315.756 486 315.756z" fill="#4d7e3e" data-fill-palette-color="accent"></path></g><g fill="#4d7e3e" data-fill-palette-color="accent"><path d="M362.49 176.36c-0.601-0.54-1.21-1.08-1.811-1.61l0 0c-4.13-3.67-4.5-9.99-0.84-14.12l0 0c3.67-4.13 9.99-4.51 14.12-0.84l0 0c0.649 0.57 1.29 1.15 1.92 1.72l0 0c4.1 3.7 4.43 10.02 0.729 14.12l0 0c-1.97 2.19-4.699 3.31-7.43 3.31l0 0C366.79 178.94 364.399 178.09 362.49 176.36z" fill="#4d7e3e" data-fill-palette-color="accent"></path></g><g fill="#4d7e3e" data-fill-palette-color="accent"><path d="M367.312 177.262c-2.362 0-4.732-0.832-6.638-2.524-8.912-7.917-18.631-15.699-28.922-23.938-24.275-19.437-51.393-41.147-72.433-69.192-21.514 28.681-49.118 50.407-73.821 69.851-9.974 7.851-19.396 15.266-28.067 22.806-4.168 3.625-10.484 3.184-14.108-0.984-3.624-4.168-3.184-10.484 0.984-14.108 9.041-7.862 18.649-15.424 28.821-23.43 28.134-22.144 57.227-45.042 77.778-77.04 1.84-2.864 5.01-4.596 8.414-4.596 0.001 0 0.002 0 0.002 0 3.405 0.001 6.576 1.734 8.415 4.6 20.073 31.289 48.767 54.263 76.516 76.48 10.495 8.404 20.409 16.341 29.704 24.599 4.129 3.668 4.502 9.989 0.834 14.118C372.815 176.128 370.069 177.262 367.312 177.262z" fill="#4d7e3e" data-fill-palette-color="accent"></path></g><g fill="#4d7e3e" data-fill-palette-color="accent"><path d="M138.96 177.41c-1.74-1.92-2.59-4.33-2.59-6.73l0 0c0.01-2.72 1.12-5.42 3.29-7.39l0 0c0.4-0.36 0.81-0.67 1.24-0.96l0 0c0.32-0.39 0.68-0.76 1.08-1.11l0 0c4.13-3.67 10.45-3.29 14.11 0.85l0 0c3.67 4.13 3.29 10.45-0.84 14.11l0 0 0 0 0 0c-0.38 0.33-0.76 0.63-1.17 0.89l0 0c-0.3 0.37-0.64 0.72-1 1.05l0 0c-1.91 1.73-4.31 2.58-6.71 2.58l0 0C143.65 180.7 140.93 179.6 138.96 177.41z" fill="#4d7e3e" data-fill-palette-color="accent"></path></g><g fill="#4d7e3e" data-fill-palette-color="accent"><path d="M119.361 315.756H26c-5.523 0-10-4.478-10-10s4.477-10 10-10h78.541C98.867 279.475 96 262.483 96 245.058c0-37.265 22.072-62.247 43.663-81.77 4.098-3.704 10.42-3.386 14.125 0.71s3.386 10.42-0.71 14.125C127.088 201.622 116 221.639 116 245.058c0 19.64 4.185 38.649 12.438 56.502 1.431 3.097 1.186 6.709-0.652 9.583C125.948 314.017 122.772 315.756 119.361 315.756z" fill="#4d7e3e" data-fill-palette-color="accent"></path></g></g></g><g fill="#4d7e3e" data-fill-palette-color="accent"><g fill="#4d7e3e" data-fill-palette-color="accent"><path d="M168.766 315.759c-4.307 0-8.284-2.805-9.579-7.144-5.999-20.104-9.041-41.488-9.041-63.558 0-47.331 24.084-76.702 49.583-107.798 18.116-22.092 36.849-44.937 50.132-76.982 1.548-3.736 5.194-6.171 9.238-6.171 0.001 0 0.001 0 0.002 0 4.045 0.001 7.69 2.438 9.237 6.174 12.977 31.341 31.457 54.267 49.329 76.438 25.499 31.632 49.583 61.51 49.583 108.338 0 22.067-3.042 43.451-9.04 63.558-1.58 5.292-7.15 8.3-12.442 6.724-5.292-1.579-8.302-7.149-6.724-12.442 5.445-18.249 8.206-37.709 8.206-57.839 0-39.771-20.925-65.729-45.153-95.786-14.267-17.698-30.05-37.278-42.998-61.731-13.245 25.011-29.354 44.656-43.904 62.401-24.173 29.479-45.049 54.938-45.049 95.116 0 20.132 2.761 39.592 8.206 57.839 1.579 5.292-1.431 10.862-6.723 12.442C170.675 315.623 169.712 315.759 168.766 315.759z" fill="#4d7e3e" data-fill-palette-color="accent"></path></g></g><g fill="#4d7e3e" data-fill-palette-color="accent"><path d="M259.1 74.107c-5.523 0-10-4.477-10-10V26c0-5.523 4.477-10 10-10 5.522 0 10 4.477 10 10v38.107C269.1 69.63 264.622 74.107 259.1 74.107z" fill="#4d7e3e" data-fill-palette-color="accent"></path></g><rect x="310.142" y="431.858" transform="matrix(0.7071 0.7071 -0.7071 0.7071 406.2083 -96.9578)" width="20.001" height="20" fill="#4d7e3e" data-fill-palette-color="accent"></rect><rect x="340.142" y="431.858" transform="matrix(0.7071 0.7071 -0.7071 0.7071 414.9951 -118.171)" width="20.001" height="20" fill="#4d7e3e" data-fill-palette-color="accent"></rect><rect x="370.142" y="431.858" transform="matrix(0.7071 0.7071 -0.7071 0.7071 423.7819 -139.3842)" width="20.001" height="20" fill="#4d7e3e" data-fill-palette-color="accent"></rect><rect x="400.142" y="431.858" transform="matrix(0.7071 0.7071 -0.7071 0.7071 432.5687 -160.5974)" width="20.001" height="20" fill="#4d7e3e" data-fill-palette-color="accent"></rect><rect x="430.142" y="431.858" transform="matrix(0.7071 0.7071 -0.7071 0.7071 441.3555 -181.8105)" width="20.001" height="20" fill="#4d7e3e" data-fill-palette-color="accent"></rect><rect x="460.142" y="431.858" transform="matrix(0.7071 0.7071 -0.7071 0.7071 450.1423 -203.0238)" width="20.001" height="20" fill="#4d7e3e" data-fill-palette-color="accent"></rect><path d="M138.929 93.072L138.929 93.072c-3.905-3.905-3.905-10.237 0-14.143l0 0c3.905-3.905 10.237-3.905 14.143 0l0 0c3.904 3.905 3.904 10.237 0 14.143l0 0C149.166 96.977 142.834 96.977 138.929 93.072z" fill="#4d7e3e" data-fill-palette-color="accent"></path><path d="M358.929 123.072L358.929 123.072c-3.905-3.905-3.905-10.237 0-14.143l0 0c3.905-3.905 10.237-3.905 14.143 0l0 0c3.905 3.905 3.905 10.237 0 14.143l0 0C369.166 126.977 362.834 126.977 358.929 123.072z" fill="#4d7e3e" data-fill-palette-color="accent"></path><path d="M448.929 183.072L448.929 183.072c-3.905-3.905-3.905-10.237 0-14.143l0 0c3.905-3.905 10.237-3.905 14.143 0l0 0c3.905 3.905 3.905 10.237 0 14.143l0 0C459.166 186.977 452.834 186.977 448.929 183.072z" fill="#4d7e3e" data-fill-palette-color="accent"></path><path d="M48.929 223.072L48.929 223.072c-3.905-3.905-3.905-10.237 0-14.143l0 0c3.905-3.905 10.237-3.905 14.143 0l0 0c3.904 3.905 3.904 10.237 0 14.143l0 0C59.166 226.977 52.834 226.977 48.929 223.072z" fill="#4d7e3e" data-fill-palette-color="accent"></path><rect x="31.857" y="431.858" transform="matrix(0.7071 0.7071 -0.7071 0.7071 324.7123 99.8293)" width="20" height="19.999" fill="#4d7e3e" data-fill-palette-color="accent"></rect><rect x="61.857" y="431.858" transform="matrix(0.7071 0.7071 -0.7071 0.7071 333.4998 78.6153)" width="20" height="19.999" fill="#4d7e3e" data-fill-palette-color="accent"></rect><rect x="91.857" y="431.858" transform="matrix(0.7071 0.7071 -0.7071 0.7071 342.2874 57.4014)" width="20" height="19.999" fill="#4d7e3e" data-fill-palette-color="accent"></rect><rect x="121.857" y="431.858" transform="matrix(0.7071 0.7071 -0.7071 0.7071 351.0749 36.1874)" width="20" height="19.999" fill="#4d7e3e" data-fill-palette-color="accent"></rect><rect x="151.857" y="431.858" transform="matrix(0.7071 0.7071 -0.7071 0.7071 359.8624 14.9735)" width="20" height="19.999" fill="#4d7e3e" data-fill-palette-color="accent"></rect><rect x="181.857" y="431.858" transform="matrix(0.7071 0.7071 -0.7071 0.7071 368.6499 -6.2404)" width="20" height="19.999" fill="#4d7e3e" data-fill-palette-color="accent"></rect><g fill="#4d7e3e" data-fill-palette-color="accent"><path d="M257.68 331.812c-2.559 0-5.118-0.977-7.071-2.929l-27.906-27.905c-1.875-1.875-2.929-4.419-2.929-7.071s1.054-5.195 2.929-7.071l27.906-27.906c1.875-1.875 4.419-2.929 7.071-2.929l0 0c2.652 0 5.196 1.054 7.071 2.929l27.905 27.906c3.905 3.905 3.905 10.237 0 14.143l-27.905 27.905C262.798 330.835 260.239 331.812 257.68 331.812zM243.916 293.906l13.764 13.764 13.764-13.764-13.764-13.764L243.916 293.906z" fill="#4d7e3e" data-fill-palette-color="accent"></path></g><g fill="#4d7e3e" data-fill-palette-color="accent"><path d="M285.585 359.718L285.585 359.718c-2.652 0-5.196-1.054-7.071-2.929l-27.905-27.906c-3.905-3.905-3.905-10.237 0-14.143l27.905-27.905c3.906-3.904 10.236-3.904 14.143 0l27.906 27.905c1.875 1.875 2.929 4.419 2.929 7.071s-1.054 5.195-2.929 7.071l-27.906 27.906C290.78 358.664 288.237 359.718 285.585 359.718zM271.821 321.812l13.764 13.764 13.764-13.764-13.764-13.764L271.821 321.812z" fill="#4d7e3e" data-fill-palette-color="accent"></path></g><g fill="#4d7e3e" data-fill-palette-color="accent"><path d="M313.491 387.623c-2.56 0-5.118-0.977-7.071-2.929l-27.906-27.905c-1.875-1.875-2.929-4.419-2.929-7.071s1.054-5.195 2.929-7.071l27.906-27.906c3.906-3.904 10.236-3.904 14.143 0l27.906 27.906c1.875 1.876 2.929 4.419 2.929 7.071s-1.054 5.196-2.929 7.071l-27.906 27.905C318.609 386.646 316.051 387.623 313.491 387.623zM299.728 349.718l13.764 13.764 13.764-13.764-13.764-13.764L299.728 349.718z" fill="#4d7e3e" data-fill-palette-color="accent"></path></g><g fill="#4d7e3e" data-fill-palette-color="accent"><path d="M229.773 359.718L229.773 359.718c-2.652 0-5.196-1.054-7.071-2.929l-27.906-27.906c-1.875-1.876-2.929-4.419-2.929-7.071s1.054-5.195 2.929-7.071l27.906-27.905c3.905-3.904 10.236-3.904 14.142 0l27.907 27.905c1.875 1.875 2.929 4.419 2.929 7.071s-1.054 5.195-2.929 7.071l-27.906 27.906C234.969 358.664 232.425 359.718 229.773 359.718zM216.01 321.812l13.764 13.764 13.764-13.764-13.764-13.764L216.01 321.812z" fill="#4d7e3e" data-fill-palette-color="accent"></path></g><g fill="#4d7e3e" data-fill-palette-color="accent"><path d="M257.68 387.623c-2.559 0-5.118-0.977-7.071-2.929l-27.906-27.905c-1.875-1.875-2.929-4.419-2.929-7.071s1.054-5.195 2.929-7.071l27.906-27.906c1.875-1.875 4.419-2.929 7.071-2.929l0 0c2.652 0 5.196 1.054 7.071 2.929l27.905 27.906c3.905 3.905 3.905 10.237 0 14.143l-27.905 27.905C262.798 386.646 260.239 387.623 257.68 387.623zM243.916 349.718l13.764 13.764 13.764-13.764-13.764-13.764L243.916 349.718z" fill="#4d7e3e" data-fill-palette-color="accent"></path></g><g fill="#4d7e3e" data-fill-palette-color="accent"><path d="M285.585 415.529L285.585 415.529c-2.652 0-5.196-1.054-7.071-2.929l-27.905-27.906c-3.905-3.905-3.905-10.237 0-14.143l27.905-27.905c3.906-3.904 10.236-3.904 14.143 0l27.906 27.905c1.875 1.875 2.929 4.419 2.929 7.071s-1.054 5.195-2.929 7.071l-27.906 27.906C290.78 414.476 288.237 415.529 285.585 415.529zM271.821 377.623l13.764 13.764 13.764-13.764-13.764-13.764L271.821 377.623z" fill="#4d7e3e" data-fill-palette-color="accent"></path></g><g fill="#4d7e3e" data-fill-palette-color="accent"><path d="M201.868 387.623c-2.559 0-5.118-0.977-7.071-2.929l-27.906-27.905c-1.875-1.876-2.929-4.419-2.929-7.071s1.054-5.195 2.929-7.071l27.906-27.906c1.875-1.875 4.419-2.929 7.071-2.929s5.196 1.054 7.071 2.929l27.906 27.906c1.875 1.876 2.929 4.419 2.929 7.071s-1.054 5.195-2.929 7.071l-27.906 27.905C206.986 386.646 204.427 387.623 201.868 387.623zM188.104 349.718l13.764 13.764 13.764-13.764-13.764-13.764L188.104 349.718z" fill="#4d7e3e" data-fill-palette-color="accent"></path></g><g fill="#4d7e3e" data-fill-palette-color="accent"><path d="M229.773 415.529L229.773 415.529c-2.652 0-5.196-1.054-7.071-2.929l-27.906-27.906c-1.875-1.876-2.929-4.419-2.929-7.071s1.054-5.195 2.929-7.071l27.906-27.905c3.905-3.904 10.236-3.904 14.142 0l27.907 27.905c1.875 1.875 2.929 4.419 2.929 7.071s-1.054 5.195-2.929 7.071l-27.906 27.906C234.969 414.476 232.425 415.529 229.773 415.529zM216.01 377.623l13.764 13.764 13.764-13.764-13.764-13.764L216.01 377.623z" fill="#4d7e3e" data-fill-palette-color="accent"></path></g><g fill="#4d7e3e" data-fill-palette-color="accent"><path d="M257.68 443.436c-2.652 0-5.196-1.054-7.071-2.929l-27.906-27.906c-3.905-3.905-3.905-10.237 0-14.143l27.906-27.906c1.875-1.875 4.419-2.929 7.071-2.929l0 0c2.652 0 5.196 1.054 7.071 2.929l27.905 27.906c3.905 3.905 3.905 10.237 0 14.143l-27.905 27.906C262.876 442.382 260.332 443.436 257.68 443.436zM243.916 405.529l13.764 13.764 13.764-13.764-13.764-13.764L243.916 405.529z" fill="#4d7e3e" data-fill-palette-color="accent"></path></g><g fill="#4d7e3e" data-fill-palette-color="accent"><path d="M275.898 496c-1.794 0-3.586-0.482-5.175-1.443l-15.464-9.352-15.464 9.352c-3.088 1.867-6.943 1.927-10.086 0.154-3.144-1.773-5.088-5.102-5.088-8.711v-79.212c0-5.522 4.477-10 10-10s10 4.478 10 10v61.479l5.464-3.305c3.182-1.925 7.169-1.924 10.349 0l5.465 3.305v-52.983c0-5.522 4.478-10 10-10s10 4.478 10 10V486c0 3.609-1.944 6.938-5.088 8.711C279.284 495.571 277.591 496 275.898 496z" fill="#4d7e3e" data-fill-palette-color="accent"></path></g><g fill="#4d7e3e" data-fill-palette-color="accent"><path d="M76 156c-16.542 0-30-13.458-30-30s13.458-30 30-30 30 13.458 30 30S92.542 156 76 156zM76 116c-5.514 0-10 4.486-10 10s4.486 10 10 10 10-4.486 10-10S81.514 116 76 116z" fill="#4d7e3e" data-fill-palette-color="accent"></path></g><g fill="#4d7e3e" data-fill-palette-color="accent"><path d="M436 126c-22.056 0-40-17.944-40-40s17.944-40 40-40 40 17.944 40 40S458.056 126 436 126zM436 66c-11.028 0-20 8.972-20 20s8.972 20 20 20 20-8.972 20-20S447.028 66 436 66z" fill="#4d7e3e" data-fill-palette-color="accent"></path></g><g fill="#4d7e3e" data-fill-palette-color="accent"><path d="M257.68 276c-5.523 0-10-4.478-10-10v-20c0-5.523 4.477-10 10-10 5.522 0 10 4.477 10 10v20C267.68 271.522 263.202 276 257.68 276z" fill="#4d7e3e" data-fill-palette-color="accent"></path></g></g></g></g></svg></g></svg></g><g></g></svg></g></svg></g><path d="M0 41.215L0 1 130.575 1 130.575 41.215 126.9 41.215 126.9 4.674 3.674 4.674 3.674 41.215 0 41.215M0 205.985L0 246.2 130.575 246.2 130.575 205.985 126.9 205.985 126.9 242.526 3.674 242.526 3.674 205.985 0 205.985" fill="#4d7e3e" stroke="transparent" data-fill-palette-color="primary"></path></svg></g><defs></defs></svg><rect width="130.5746219042637" height="247.2" fill="none" stroke="none" visibility="hidden"></rect></g></svg></g></svg>